<svg xmlns="http://www.w3.org/2000/svg" viewBox="0 0 400 400" width="400" height="400">
<title>Bota Tática Nightwalker</title>
<defs>
<linearGradient id="t" x1="0" y1="0" x2="0" y2="1"><stop offset="0" stop-color="#26234a"/><stop offset="1" stop-color="#0d0c1b"/></linearGradient>
<filter id="n" x="-50%" y="-50%" width="200%" height="200%" color-interpolation-filters="sRGB"><feGaussianBlur stdDeviation="3" result="b"/><feMerge><feMergeNode in="b"/><feMergeNode in="SourceGraphic"/></feMerge></filter>
</defs>
<g stroke-linejoin="round" stroke-linecap="round" fill="none">
<path d="M126 52H238L246 204C304 212 356 236 360 280V296H112L110 236Z" fill="url(#t)" stroke="#5a5696" stroke-width="2"/>
<path d="M104 292H366V326Q366 336 354 336H116Q104 336 104 326Z" fill="#151330" stroke="#5a5696" stroke-width="2"/>
<path d="M120 346H350" stroke="#00f0ff" stroke-width="4" filter="url(#n)"/>
<path d="M118 100H236M118 128H240M118 156H242M118 184H244" stroke="#ff2bd6" stroke-width="3" filter="url(#n)"/>
<path d="M126 52H238V78H126Z" fill="#151330" stroke="#5a5696" stroke-width="2"/>
<path d="M130 208H240V232H130Z" fill="#fcee0a" fill-opacity=".92" stroke="none"/>
<rect x="176" y="204" width="18" height="32" rx="3" fill="#0d0c1b" stroke="#fcee0a" stroke-width="3"/>
<path d="M262 216C300 224 330 240 344 266" stroke="#5a5696" stroke-width="2"/>
<path d="M112 296H360" stroke="#0a0914" stroke-width="2"/>
<path d="M132 308V324M152 308V324M172 308V324M192 308V324M212 308V324M232 308V324M252 308V324M272 308V324M292 308V324M312 308V324M332 308V324" stroke="#0a0914" stroke-width="3"/>
</g>
</svg>
