<svg xmlns="http://www.w3.org/2000/svg" viewBox="0 0 400 400" width="400" height="400">
<title>Corta-vento VX-7</title>
<defs>
<linearGradient id="t" x1="0" y1="0" x2="0" y2="1"><stop offset="0" stop-color="#26234a"/><stop offset="1" stop-color="#0d0c1b"/></linearGradient>
<filter id="n" x="-50%" y="-50%" width="200%" height="200%" color-interpolation-filters="sRGB"><feGaussianBlur stdDeviation="3" result="b"/><feMerge><feMergeNode in="b"/><feMergeNode in="SourceGraphic"/></feMerge></filter>
</defs>
<g stroke-linejoin="round" stroke-linecap="round" fill="none">
<path d="M138 112C126 52 166 30 200 30C234 30 274 52 262 112Q200 150 138 112Z" fill="#151330" stroke="#5a5696" stroke-width="2"/>
<path d="M150 108L98 128L46 306L90 320L120 206L122 356H278L280 206L310 320L354 306L302 128L250 108Q200 142 150 108Z" fill="url(#t)" stroke="#5a5696" stroke-width="2"/>
<path d="M158 110C154 74 178 60 200 60C222 60 246 74 242 110Q200 138 158 110Z" fill="#05040b" stroke="#00f0ff" stroke-width="2.5" filter="url(#n)"/>
<path d="M200 134V356" stroke="#00f0ff" stroke-width="3" filter="url(#n)"/>
<path d="M94 150L72 300M306 150L328 300" stroke="#ff2bd6" stroke-width="3" filter="url(#n)"/>
<path d="M130 192L178 204V250L130 238Z M270 192L222 204V250L270 238Z" stroke="#5a5696" stroke-width="2"/>
<path d="M130 192L178 204M270 192L222 204" stroke="#00f0ff" stroke-width="2.5"/>
<path d="M124 332Q200 348 276 332" stroke="#5a5696" stroke-width="2"/>
<rect x="146" y="336" width="8" height="14" rx="2" fill="#ff2bd6" stroke="none"/>
<rect x="246" y="336" width="8" height="14" rx="2" fill="#ff2bd6" stroke="none"/>
<rect x="194" y="128" width="12" height="16" rx="2" fill="#0d0c1b" stroke="#00f0ff" stroke-width="2"/>
</g>
</svg>
