<svg xmlns="http://www.w3.org/2000/svg" viewBox="0 0 400 400" width="400" height="400">
<title>Moletom Zip Ghost</title>
<defs>
<linearGradient id="t" x1="0" y1="0" x2="0" y2="1"><stop offset="0" stop-color="#26234a"/><stop offset="1" stop-color="#0d0c1b"/></linearGradient>
<filter id="n" x="-50%" y="-50%" width="200%" height="200%" color-interpolation-filters="sRGB"><feGaussianBlur stdDeviation="3" result="b"/><feMerge><feMergeNode in="b"/><feMergeNode in="SourceGraphic"/></feMerge></filter>
</defs>
<g stroke-linejoin="round" stroke-linecap="round" fill="none">
<path d="M134 116C116 48 160 24 200 24C240 24 284 48 266 116Q200 160 134 116Z" fill="#151330" stroke="#5a5696" stroke-width="2"/>
<path d="M148 112L96 132L44 300L92 316L118 214V352H282V214L308 316L356 300L304 132L252 112Q200 148 148 112Z" fill="url(#t)" stroke="#5a5696" stroke-width="2"/>
<path d="M154 114C148 72 176 54 200 54C224 54 252 72 246 114Q200 144 154 114Z" fill="#05040b" stroke="#5a5696" stroke-width="2"/>
<path d="M44 300L92 316L86 338L38 322Z M356 300L308 316L314 338L362 322Z" fill="#151330" stroke="#5a5696" stroke-width="2"/>
<path d="M118 330H282V352H118Z" fill="#151330" stroke="#5a5696" stroke-width="2"/>
<path d="M200 142V250" stroke="#ff2bd6" stroke-width="3" filter="url(#n)"/>
<path d="M136 250H264L276 326H124Z" stroke="#5a5696" stroke-width="2"/>
<path d="M136 250L170 300M264 250L230 300" stroke="#5a5696" stroke-width="2"/>
<path d="M186 138L184 196M214 138L216 196" stroke="#8a86b8" stroke-width="2.5"/>
<circle cx="184" cy="200" r="4" fill="#ff2bd6" stroke="none"/>
<circle cx="216" cy="200" r="4" fill="#ff2bd6" stroke="none"/>
<path d="M90 160L66 292M310 160L334 292" stroke="#ff2bd6" stroke-width="3" stroke-dasharray="14 8" filter="url(#n)"/>
<path d="M128 214V330M272 214V330" stroke="#00f0ff" stroke-width="2" stroke-opacity=".7"/>
</g>
</svg>
